<svg width="1100" height="1100" viewBox="0 0 1100 1100" fill="none" xmlns="http://www.w3.org/2000/svg">
<rect width="1100" height="1100" fill="white"/>
<mask id="mask0_12_150" style="mask-type:luminance" maskUnits="userSpaceOnUse" x="229" y="310" width="642" height="393">
<path d="M870.5 310.608H229.5V702.608H870.5V310.608Z" fill="white"/>
</mask>
<g mask="url(#mask0_12_150)">
<path fill-rule="evenodd" clip-rule="evenodd" d="M802.207 382.328H858.225L747.746 477.942L863.652 582.104H808.834L725.034 506.775V582.104H687.251V488.584L802.207 382.328Z" fill="#F05A22"/>
<path fill-rule="evenodd" clip-rule="evenodd" d="M528.424 414.868C516.533 414.868 505.422 417.765 495.134 423.718C489.948 426.722 485.36 430.312 481.331 434.457L392.147 523.114L345.516 568.773C333.115 581.005 317.728 586.65 300.365 586.65C288.545 586.65 277.288 584.058 266.62 578.966C256.082 573.933 247.097 566.858 239.915 557.653L236.348 553.082L260.468 525.695L265.716 531.629C274.44 541.478 285.661 549.912 299.373 549.912C306.956 549.912 313.537 547.629 319.162 542.515L392.147 469.719L453.882 408.306L454.529 407.659C474.367 387.91 498.461 377.776 526.558 377.776L528.421 377.792C543.375 378.036 557.792 381.251 571.13 388.183C579.438 392.508 586.826 398.051 593.384 404.502V310.608H631.174V448.507L594.769 484.721L594.786 483.151C594.786 464.276 588.874 447.905 575.562 434.344C562.579 421.12 546.926 414.868 528.421 414.868H528.424Z" fill="#464646"/>
<path fill-rule="evenodd" clip-rule="evenodd" d="M528.424 586.624L525.862 586.653C497.557 586.653 473.339 576.268 453.563 556.031C440.18 542.339 431.4 526.713 427.011 509.324L462.329 474.216C461.998 476.94 461.832 479.701 461.832 482.51C461.832 494.609 465.018 505.914 470.962 516.455C476.909 527.006 484.944 535.485 495.398 541.604C505.566 547.551 516.471 550.617 528.252 550.617H528.421C554.199 550.543 566.263 534.299 584.543 516.113L687.247 413.941V310.608H725.034L725.06 429.762L631.177 523.117V582.104H593.387V560.681C586.312 567.102 578.463 572.603 569.745 576.847C556.752 583.177 542.816 586.295 528.427 586.624H528.424Z" fill="#F05A22"/>
<path fill-rule="evenodd" clip-rule="evenodd" d="M366.648 409.301L341.458 435.251L336.441 430.39C327.805 422.034 316.353 413.817 303.808 413.817C297.913 413.817 292.938 415.664 288.604 419.66C284.826 423.143 282.52 427.22 282.52 432.419C282.52 437.267 284.709 441.497 287.742 445.168C293.299 451.905 306.634 459.097 314.304 463.057C325.961 469.075 340.09 477.396 349.522 487.638L323.152 513.87C322.778 513.346 322.378 512.829 321.949 512.316C316.555 505.901 301.402 498.071 293.976 494.277C281.207 487.755 265.752 478.423 257.243 466.588C250.216 456.814 246.834 445.772 246.834 433.758C246.834 418.161 252.173 404.525 263.437 393.672C274.886 382.643 289.108 377.779 304.917 377.779C326.934 377.779 346.037 389.728 361.521 404.424L366.648 409.298V409.301Z" fill="#464646"/>
</g>
<path d="M294.227 702.608V740.499C294.229 746.905 292.981 753.249 290.554 759.168C288.127 765.087 284.568 770.465 280.082 774.994C275.595 779.524 270.268 783.117 264.405 785.567C258.542 788.017 252.258 789.277 245.913 789.274H229.737V702.608H245.855V773.14C254.433 773.14 262.661 769.702 268.731 763.582C274.8 757.462 278.215 749.16 278.226 740.499V702.608H294.227Z" fill="#F05A22"/>
<path d="M373.363 727.01V789.353H357.235V726.991C357.233 724.835 356.383 722.768 354.874 721.244C353.364 719.72 351.317 718.862 349.181 718.86H325.01V789.392H308.922V702.608H349.181C355.563 702.605 361.789 705.22 366.28 709.752C370.795 714.309 373.363 720.596 373.363 727.01Z" fill="#F05A22"/>
<path d="M414.897 754.038H436.371C436.371 754.038 436.371 764.529 436.371 764.882C436.366 767.039 435.513 769.106 433.999 770.629C432.485 772.152 430.434 773.006 428.298 773.003H412.248C410.145 773.006 408.124 772.179 406.617 770.698C405.111 769.217 404.237 767.2 404.184 765.078V726.991C404.184 724.837 405.032 722.771 406.54 721.248C408.049 719.725 410.095 718.87 412.228 718.87L442.337 718.869V702.608H412.219C405.841 702.605 399.618 705.219 395.131 709.75C390.618 714.305 388.054 720.589 388.057 727V764.882C388.037 772.696 391.884 780.258 398.254 784.808C402.337 787.724 407.217 789.289 412.219 789.284H428.375C433.376 789.289 438.255 787.725 442.337 784.809C448.696 780.264 452.544 772.706 452.527 764.902V737.815H414.897V754.038Z" fill="#F05A22"/>
<path d="M491.386 702.608H532.226V714.86H493.428C485.534 714.86 479.134 721.259 479.134 729.153V762.846C479.134 770.74 485.534 777.14 493.428 777.14H500.94V777.283H505.68C513.574 777.283 519.974 770.883 519.974 762.989V750.594H497.512V738.342H532.226V764.888C532.226 778.421 521.255 789.392 507.722 789.392H491.386C477.853 789.392 466.882 778.421 466.882 764.888V727.112C466.882 713.579 477.853 702.608 491.386 702.608Z" fill="#464646"/>
<path d="M762.037 702.608H800.835V714.86H764.079C756.185 714.86 749.785 721.259 749.785 729.154V738.342H785.52V750.594H749.785V762.846C749.785 770.74 756.185 777.14 764.079 777.14H800.835V789.392H762.037C748.504 789.392 737.534 778.421 737.534 764.888V727.112C737.534 713.579 748.504 702.608 762.037 702.608Z" fill="#464646"/>
<path d="M829.423 702.608C815.89 702.608 804.92 713.579 804.92 727.112C804.92 740.645 815.89 751.615 829.423 751.615H845.249C852.297 751.615 858.011 757.329 858.011 764.378C858.011 771.426 852.297 777.14 845.249 777.14H794.71V789.392H845.759C859.292 789.392 870.263 778.421 870.263 764.888V763.867C870.263 750.334 859.292 739.363 845.759 739.363H829.423C822.657 739.363 817.171 733.878 817.171 727.112C817.171 720.345 822.657 714.86 829.423 714.86H870.263V702.608H829.423Z" fill="#464646"/>
<path fill-rule="evenodd" clip-rule="evenodd" d="M571.113 702.608C557.58 702.608 546.609 713.579 546.609 727.112V789.392H558.861V762.846H596.637V789.392H608.889V727.112C608.889 713.579 597.919 702.608 584.385 702.608H571.113ZM573.155 714.86C565.26 714.86 558.861 721.259 558.861 729.154V750.594H596.637V729.154C596.637 721.259 590.238 714.86 582.344 714.86H573.155Z" fill="#464646"/>
<path d="M647.687 702.608H654.834C662.153 702.608 668.722 705.816 673.212 710.903C677.702 705.816 684.271 702.608 691.59 702.608H698.737C712.27 702.608 723.24 713.579 723.24 727.112V789.392H710.988V729.154C710.988 721.259 704.589 714.86 696.695 714.86H693.632C685.737 714.86 679.338 721.259 679.338 729.154V789.392H667.086V729.154C667.086 721.259 660.686 714.86 652.792 714.86H649.729C641.835 714.86 635.435 721.259 635.435 729.154V789.392H623.183V727.112C623.183 713.579 634.154 702.608 647.687 702.608Z" fill="#464646"/>
</svg>
